<svg width="800" height="600" xmlns="http://www.w3.org/2000/svg">

 <g>
  <title>Layer 1</title>
  <g>
   <path stroke="#A8FFE9" clip-rule="evenodd" fill-rule="evenodd" d="m379.895,286.42499l18.37,-10.26l0,-19.29a9.233,9.233 0 0 1 -5.46,-3.16l-29.43,17.03c0.35,0.98 0.54,2.03 0.54,3.13c0,0.92 -0.13,1.8 -0.38,2.64l16.36,9.91zm11.35,-35.38a9.231,9.231 0 0 1 -0.59,-3.25c0,-2.55 1.03,-4.86 2.7,-6.53s3.98,-2.7 6.53,-2.7c2.55,0 4.86,1.03 6.53,2.7a9.205,9.205 0 0 1 2.7,6.53c0,1.12 -0.2,2.19 -0.56,3.18l29.57,17.1c0.21,-0.25 0.42,-0.5 0.65,-0.73a9.205,9.205 0 0 1 6.53,-2.7c2.55,0 4.86,1.03 6.53,2.7a9.205,9.205 0 0 1 2.7,6.53c0,2.55 -1.03,4.85 -2.7,6.52a9.194,9.194 0 0 1 -5.32,2.62l0,33.91c2.07,0.27 3.92,1.22 5.32,2.62c1.67,1.67 2.7,3.98 2.7,6.52a9.222,9.222 0 0 1 -9.23,9.23a9.205,9.205 0 0 1 -7.15,-3.39l-29.61,17.12c0.36,0.99 0.56,2.06 0.56,3.18c0,2.55 -1.03,4.86 -2.7,6.53a9.205,9.205 0 0 1 -6.53,2.7c-2.55,0 -4.86,-1.03 -6.53,-2.7s-2.7,-3.98 -2.7,-6.53c0,-1.14 0.21,-2.24 0.59,-3.25l-29.42,-17.01a9.205,9.205 0 0 1 -7.13,3.36c-2.55,0 -4.86,-1.03 -6.53,-2.7c-1.66,-1.67 -2.69,-3.98 -2.69,-6.53s1.03,-4.85 2.7,-6.52a9.242,9.242 0 0 1 5.25,-2.62l0,-33.93a9.18,9.18 0 0 1 -5.25,-2.62a9.164,9.164 0 0 1 -2.7,-6.52c0,-2.55 1.03,-4.86 2.7,-6.53a9.205,9.205 0 0 1 6.53,-2.7a9.205,9.205 0 0 1 7.16,3.4l29.39,-16.99zm15.76,2.61a9.192,9.192 0 0 1 -5.55,3.23l0,19.28l18.33,10.62l16.85,-9.74c-0.37,-0.99 -0.56,-2.07 -0.56,-3.18c0,-1.08 0.19,-2.13 0.53,-3.09l-29.6,-17.12zm36.69,29.3a9.159,9.159 0 0 1 -4.92,-2.56c-0.19,-0.19 -0.37,-0.38 -0.54,-0.59l-16.82,9.72l0,20.78l16.89,9.75c0.15,-0.17 0.3,-0.34 0.46,-0.5a9.194,9.194 0 0 1 4.92,-2.56l0,-34.04l0.01,0zm-7.07,46.27c-0.36,-0.98 -0.55,-2.04 -0.55,-3.14c0,-1.16 0.21,-2.27 0.61,-3.3l-16.34,-9.43l-18.89,10.98l0,18.79a9.192,9.192 0 0 1 5.55,3.23l29.62,-17.13zm-43.82,17.06a9.233,9.233 0 0 1 5.46,-3.16l0,-18.88l-18.96,-11l-16.09,9.29c0.45,1.09 0.71,2.29 0.71,3.55c0,1.12 -0.2,2.19 -0.56,3.18l29.44,17.02zm-36.58,-29.31c1.93,0.32 3.66,1.25 4.99,2.58c0.1,0.1 0.19,0.2 0.28,0.3l16.39,-9.46l0,-21.47l-15.78,-9.56c-0.27,0.37 -0.57,0.71 -0.89,1.03a9.255,9.255 0 0 1 -4.99,2.58l0,34zm-1.52,-37.07c0.04,0 0.08,-0.01 0.12,-0.01l0.08,0a6,6 0 0 0 4.06,-1.76a6.023,6.023 0 0 0 1.77,-4.27c0,-1.67 -0.68,-3.18 -1.77,-4.27c-1.09,-1.09 -2.6,-1.77 -4.27,-1.77s-3.18,0.68 -4.27,1.77a6.023,6.023 0 0 0 -1.77,4.27c0,1.67 0.68,3.18 1.77,4.27a6.03,6.03 0 0 0 4.28,1.77zm49.44,68.05a6.023,6.023 0 0 0 -4.27,-1.77c-1.67,0 -3.18,0.68 -4.27,1.77c-1.09,1.09 -1.77,2.6 -1.77,4.27s0.68,3.18 1.77,4.27s2.6,1.77 4.27,1.77c1.67,0 3.18,-0.68 4.27,-1.77c1.09,-1.09 1.77,-2.6 1.77,-4.27s-0.67,-3.18 -1.77,-4.27zm0,-104.43a6.023,6.023 0 0 0 -4.27,-1.77c-1.67,0 -3.18,0.68 -4.27,1.77s-1.77,2.6 -1.77,4.27c0,1.67 0.68,3.18 1.77,4.27a6.023,6.023 0 0 0 4.27,1.77c1.67,0 3.18,-0.68 4.27,-1.77a6.023,6.023 0 0 0 1.77,-4.27c0,-1.67 -0.67,-3.18 -1.77,-4.27zm45.42,78.29a6.023,6.023 0 0 0 -4.27,-1.77c-1.67,0 -3.18,0.68 -4.27,1.77a6.023,6.023 0 0 0 -1.77,4.27c0,1.67 0.68,3.18 1.77,4.27a6.023,6.023 0 0 0 4.27,1.77c1.67,0 3.18,-0.68 4.27,-1.77a6.023,6.023 0 0 0 1.77,-4.27c0,-1.67 -0.67,-3.18 -1.77,-4.27zm-90.6,0c-1.09,-1.09 -2.6,-1.77 -4.27,-1.77s-3.18,0.68 -4.27,1.77a6.023,6.023 0 0 0 -1.77,4.27c0,1.67 0.68,3.18 1.77,4.27s2.6,1.77 4.27,1.77s3.18,-0.68 4.27,-1.77a6.023,6.023 0 0 0 1.77,-4.27a6.065,6.065 0 0 0 -1.77,-4.27zm80.95,-45.22c0.08,0.08 0.14,0.18 0.2,0.28c0.06,0.1 0.1,0.2 0.14,0.31c0.23,0.34 0.49,0.66 0.77,0.95a6.023,6.023 0 0 0 4.27,1.77c1.67,0 3.18,-0.68 4.27,-1.77a6.023,6.023 0 0 0 1.77,-4.27c0,-1.67 -0.68,-3.18 -1.77,-4.27a6.023,6.023 0 0 0 -4.27,-1.77c-1.67,0 -3.18,0.68 -4.27,1.77a6.023,6.023 0 0 0 -1.77,4.27c0.01,0.99 0.25,1.91 0.66,2.73zm-59.04,33.46a1.687,1.687 0 0 1 0.43,0.88l17.13,10.07l0,-19.88l-17.56,-10.45l0,19.38zm37.56,-19.11l-17.01,10.19l0,19.89l17.01,-10.05l0,-20.03zm-18.58,-12.39l-16.6,9.93l16.69,10.05l16.21,-9.84l-16.3,-10.14z"/>
  </g>
 </g>
</svg>